<svg xmlns="http://www.w3.org/2000/svg" version="1.1" xmlns:xlink="http://www.w3.org/1999/xlink" xmlns:svgjs="http://svgjs.dev/svgjs" width="1440" height="560" preserveAspectRatio="none" viewBox="0 0 1440 560"><g mask="url(&quot;#SvgjsMask1053&quot;)" fill="none"><rect width="1440" height="560" x="0" y="0" fill="#0e2a47"></rect><use xlink:href="#SvgjsG1062" transform="translate(0, 0)" fill="#0f457b"></use><use xlink:href="#SvgjsG1062" transform="translate(0, 480)" fill="#0f457b"></use><use xlink:href="#SvgjsG1062" transform="translate(480, 0)" fill="#0f457b"></use><use xlink:href="#SvgjsG1062" transform="translate(480, 480)" fill="#0f457b"></use><use xlink:href="#SvgjsG1062" transform="translate(960, 0)" fill="#0f457b"></use><use xlink:href="#SvgjsG1062" transform="translate(960, 480)" fill="#0f457b"></use></g><defs><mask id="SvgjsMask1053"><rect width="1440" height="560" fill="#ffffff"></rect></mask><g id="SvgjsG1056"><path d="M3.474 10.969C3.474 7.665 8.077 0.361 8.077 0.361s4.602 7.305 4.602 10.608c0 2.247-1.506 4.771-4.602 4.771-3.095 0-4.603-2.524-4.603-4.771z" fill-rule="evenodd"></path></g><g id="SvgjsG1055"><path d="M7.713 15.485C3.459 15.485 0 12.025 0 7.768 0 3.513 3.459 0.051 7.713 0.051S15.432 3.513 15.432 7.768c0 4.257-3.465 7.716-7.719 7.717z m0-1.91c3.201 0 5.81-2.604 5.81-5.809 0-3.199-2.61-5.807-5.81-5.807-3.202 0-5.804 2.609-5.804 5.807-0.001 3.206 2.602 5.809 5.804 5.809z"></path><path d="M7.753 8.787a0.574 0.574 0 0 1-0.554-0.042 0.578 0.578 0 0 1-0.259-0.399L6.931 3.862a0.58 0.58 0 0 1 1.162 0v3.478l2.975-1.4a0.578 0.578 0 0 1 0.773 0.275c0.138 0.292 0.011 0.637-0.276 0.774l-3.81 1.798z"></path></g><g id="SvgjsG1060"><path d="M2.524 8.637H0.014V7.308h2.51v1.329zM3.656 4.576L1.884 2.804l0.935-0.935 1.772 1.772-0.935 0.935z m0 6.817l0.935 0.935-1.772 1.773-0.934-0.936 1.771-1.772z m4.997-8.884h-1.33V-0.002h1.33v2.511z m-1.33 10.952h1.33v2.51h-1.33v-2.509zM12.344 4.576l-0.96-0.935 1.796-1.772 0.935 0.935-1.772 1.772z m0 6.792l1.771 1.797-0.935 0.936-1.771-1.774 0.936-0.96z m3.643-4.06v1.329h-2.51V7.308h2.509z"></path><path d="M3.702 7.984a4.184 4.184 0 1 0 8.368 0 4.184 4.184 0 1 0-8.368 0"></path></g><g id="SvgjsG1058"><path d="M15.233 9.431c0.295 0 0.569-0.239 0.61-0.532 0 0 0.056-0.411 0.056-0.899s-0.056-0.899-0.056-0.899c-0.041-0.292-0.315-0.531-0.61-0.53h-1.524c-0.295 0-0.602-0.188-0.681-0.418s-0.188-0.967 0.021-1.176l1.078-1.077c0.209-0.209 0.225-0.565 0.036-0.792l-1.268-1.268c-0.227-0.189-0.583-0.173-0.792 0.036l-1.078 1.077c-0.208 0.209-0.556 0.293-0.772 0.187s-0.822-0.552-0.821-0.847V0.767c0-0.295-0.239-0.569-0.531-0.61 0 0-0.411-0.057-0.9-0.056s-0.899 0.057-0.899 0.056c-0.293 0.04-0.532 0.315-0.532 0.61v1.524c0 0.295-0.188 0.601-0.418 0.681s-0.967 0.188-1.176-0.021l-1.078-1.078C3.689 1.665 3.333 1.649 3.107 1.837l-1.268 1.268c-0.189 0.227-0.173 0.583 0.036 0.792l1.077 1.078c0.209 0.209 0.293 0.556 0.187 0.772s-0.552 0.822-0.847 0.822H0.767c-0.295 0-0.569 0.239-0.61 0.531 0 0-0.057 0.411-0.056 0.899s0.057 0.899 0.056 0.9c0.04 0.293 0.315 0.532 0.61 0.532h1.525c0.295 0 0.601 0.188 0.681 0.417 0.079 0.23 0.188 0.967-0.02 1.176l-1.078 1.077C1.667 12.311 1.651 12.667 1.84 12.893l1.267 1.268c0.227 0.189 0.583 0.173 0.792-0.036l1.077-1.077c0.209-0.208 0.556-0.292 0.772-0.187s0.821 0.553 0.822 0.848v1.524c0 0.295 0.239 0.569 0.532 0.61 0 0 0.411 0.057 0.899 0.057s0.899-0.056 0.899-0.057c0.293-0.04 0.531-0.315 0.532-0.609v-1.524c0-0.295 0.188-0.602 0.418-0.681 0.23-0.079 0.967-0.188 1.176 0.021l1.077 1.077c0.209 0.209 0.565 0.225 0.792 0.036l1.268-1.267c0.189-0.227 0.173-0.583-0.036-0.792l-1.078-1.077c-0.209-0.209-0.293-0.557-0.186-0.773 0.106-0.216 0.552-0.822 0.847-0.822h1.525zM8 10.892c-1.597 0-2.891-1.294-2.891-2.892 0-1.596 1.295-2.891 2.891-2.891S10.892 6.404 10.892 8 9.597 10.892 8 10.892z"></path></g><g id="SvgjsG1059"><path d="M15.065 12.151H0.02c0 1.333 1.015 1.95 1.83 1.95h11.386c0.975 0 1.83-0.767 1.829-1.951zM12.853 2.166H1.869v7.208c0 0.976 0.843 1.75 1.755 1.75h7.121c1.031 0 1.731-0.863 1.731-1.749V8.773c2.031 0 3.505-1.527 3.505-3.303 0-1.815-1.445-3.303-3.126-3.303z m1.832 3.305c0 1.036-0.763 2.025-2.21 1.931V3.519l0.378 0 0 0.001c1.391 0 1.837 1.318 1.832 1.952v-0.001z"></path></g><g id="SvgjsG1057"><path d="M8 1.076C3.594 1.076 0.023 3.767 0.023 7.088c0 1.625 0.857 3.099 2.248 4.181l0.003 3.607 4.168-1.892c0.504 0.075 1.025 0.115 1.558 0.116 4.406 0 7.976-2.692 7.976-6.012C15.976 3.767 12.406 1.076 8 1.076z" fill-rule="evenodd"></path></g><g id="SvgjsG1061"><path d="M15.819 2.872L8 9.063 0.182 2.872z m0 8.863L11.116 8l4.703-3.734zM0.161 4.266l4.702 3.734L0.161 11.735z"></path><path d="M10.255 8.663L8.011 10.434 5.766 8.663 0.182 13.068h15.656z"></path></g><g id="SvgjsG1054"><path d="M6.22 14.34L0.096 8.212l2.288-2.288 6.124 6.124z"></path><path d="M16.126 4.416L7.47 13.072l-2.44-2.44L13.686 1.976z"></path></g><g id="SvgjsG1062"><use xlink:href="#SvgjsG1054" transform="translate(0, 0) scale(2)" fill="#0f457b"></use><use xlink:href="#SvgjsG1055" transform="translate(0, 48) scale(2)" fill="#0f457b"></use><use xlink:href="#SvgjsG1056" transform="translate(0, 96) scale(2)" fill="#0f457b"></use><use xlink:href="#SvgjsG1056" transform="translate(0, 144) scale(2)" fill="#0f457b"></use><use xlink:href="#SvgjsG1054" transform="translate(0, 192) scale(2)" fill="#0f457b"></use><use xlink:href="#SvgjsG1055" transform="translate(0, 240) scale(2)" fill="#0f457b"></use><use xlink:href="#SvgjsG1057" transform="translate(0, 288) scale(2)" fill="#0f457b"></use><use xlink:href="#SvgjsG1058" transform="translate(0, 336) scale(2)" fill="#0f457b"></use><use xlink:href="#SvgjsG1055" transform="translate(0, 384) scale(2)" fill="#0f457b"></use><use xlink:href="#SvgjsG1054" transform="translate(0, 432) scale(2)" fill="#0f457b"></use><use xlink:href="#SvgjsG1056" transform="translate(48, 0) scale(2)" fill="#0f457b"></use><use xlink:href="#SvgjsG1058" transform="translate(48, 48) scale(2)" fill="#0f457b"></use><use xlink:href="#SvgjsG1059" transform="translate(48, 96) scale(2)" fill="#0f457b"></use><use xlink:href="#SvgjsG1058" transform="translate(48, 144) scale(2)" fill="#0f457b"></use><use xlink:href="#SvgjsG1054" transform="translate(48, 192) scale(2)" fill="#0f457b"></use><use xlink:href="#SvgjsG1056" transform="translate(48, 240) scale(2)" fill="#0f457b"></use><use xlink:href="#SvgjsG1058" transform="translate(48, 288) scale(2)" fill="#0f457b"></use><use xlink:href="#SvgjsG1055" transform="translate(48, 336) scale(2)" fill="#0f457b"></use><use xlink:href="#SvgjsG1055" transform="translate(48, 384) scale(2)" fill="#0f457b"></use><use xlink:href="#SvgjsG1056" transform="translate(48, 432) scale(2)" fill="#0f457b"></use><use xlink:href="#SvgjsG1058" transform="translate(96, 0) scale(2)" fill="#0f457b"></use><use xlink:href="#SvgjsG1059" transform="translate(96, 48) scale(2)" fill="#0f457b"></use><use xlink:href="#SvgjsG1059" transform="translate(96, 96) scale(2)" fill="#0f457b"></use><use xlink:href="#SvgjsG1058" transform="translate(96, 144) scale(2)" fill="#0f457b"></use><use xlink:href="#SvgjsG1054" transform="translate(96, 192) scale(2)" fill="#0f457b"></use><use xlink:href="#SvgjsG1058" transform="translate(96, 240) scale(2)" fill="#0f457b"></use><use xlink:href="#SvgjsG1059" transform="translate(96, 288) scale(2)" fill="#0f457b"></use><use xlink:href="#SvgjsG1059" transform="translate(96, 336) scale(2)" fill="#0f457b"></use><use xlink:href="#SvgjsG1054" transform="translate(96, 384) scale(2)" fill="#0f457b"></use><use xlink:href="#SvgjsG1055" transform="translate(96, 432) scale(2)" fill="#0f457b"></use><use xlink:href="#SvgjsG1057" transform="translate(144, 0) scale(2)" fill="#0f457b"></use><use xlink:href="#SvgjsG1057" transform="translate(144, 48) scale(2)" fill="#0f457b"></use><use xlink:href="#SvgjsG1060" transform="translate(144, 96) scale(2)" fill="#0f457b"></use><use xlink:href="#SvgjsG1058" transform="translate(144, 144) scale(2)" fill="#0f457b"></use><use xlink:href="#SvgjsG1057" transform="translate(144, 192) scale(2)" fill="#0f457b"></use><use xlink:href="#SvgjsG1061" transform="translate(144, 240) scale(2)" fill="#0f457b"></use><use xlink:href="#SvgjsG1060" transform="translate(144, 288) scale(2)" fill="#0f457b"></use><use xlink:href="#SvgjsG1061" transform="translate(144, 336) scale(2)" fill="#0f457b"></use><use xlink:href="#SvgjsG1056" transform="translate(144, 384) scale(2)" fill="#0f457b"></use><use xlink:href="#SvgjsG1060" transform="translate(144, 432) scale(2)" fill="#0f457b"></use><use xlink:href="#SvgjsG1057" transform="translate(192, 0) scale(2)" fill="#0f457b"></use><use xlink:href="#SvgjsG1058" transform="translate(192, 48) scale(2)" fill="#0f457b"></use><use xlink:href="#SvgjsG1059" transform="translate(192, 96) scale(2)" fill="#0f457b"></use><use xlink:href="#SvgjsG1059" transform="translate(192, 144) scale(2)" fill="#0f457b"></use><use xlink:href="#SvgjsG1056" transform="translate(192, 192) scale(2)" fill="#0f457b"></use><use xlink:href="#SvgjsG1057" transform="translate(192, 240) scale(2)" fill="#0f457b"></use><use xlink:href="#SvgjsG1054" transform="translate(192, 288) scale(2)" fill="#0f457b"></use><use xlink:href="#SvgjsG1054" transform="translate(192, 336) scale(2)" fill="#0f457b"></use><use xlink:href="#SvgjsG1060" transform="translate(192, 384) scale(2)" fill="#0f457b"></use><use xlink:href="#SvgjsG1055" transform="translate(192, 432) scale(2)" fill="#0f457b"></use><use xlink:href="#SvgjsG1055" transform="translate(240, 0) scale(2)" fill="#0f457b"></use><use xlink:href="#SvgjsG1056" transform="translate(240, 48) scale(2)" fill="#0f457b"></use><use xlink:href="#SvgjsG1058" transform="translate(240, 96) scale(2)" fill="#0f457b"></use><use xlink:href="#SvgjsG1061" transform="translate(240, 144) scale(2)" fill="#0f457b"></use><use xlink:href="#SvgjsG1057" transform="translate(240, 192) scale(2)" fill="#0f457b"></use><use xlink:href="#SvgjsG1054" transform="translate(240, 240) scale(2)" fill="#0f457b"></use><use xlink:href="#SvgjsG1061" transform="translate(240, 288) scale(2)" fill="#0f457b"></use><use xlink:href="#SvgjsG1054" transform="translate(240, 336) scale(2)" fill="#0f457b"></use><use xlink:href="#SvgjsG1054" transform="translate(240, 384) scale(2)" fill="#0f457b"></use><use xlink:href="#SvgjsG1056" transform="translate(240, 432) scale(2)" fill="#0f457b"></use><use xlink:href="#SvgjsG1059" transform="translate(288, 0) scale(2)" fill="#0f457b"></use><use xlink:href="#SvgjsG1060" transform="translate(288, 48) scale(2)" fill="#0f457b"></use><use xlink:href="#SvgjsG1057" transform="translate(288, 96) scale(2)" fill="#0f457b"></use><use xlink:href="#SvgjsG1058" transform="translate(288, 144) scale(2)" fill="#0f457b"></use><use xlink:href="#SvgjsG1061" transform="translate(288, 192) scale(2)" fill="#0f457b"></use><use xlink:href="#SvgjsG1056" transform="translate(288, 240) scale(2)" fill="#0f457b"></use><use xlink:href="#SvgjsG1061" transform="translate(288, 288) scale(2)" fill="#0f457b"></use><use xlink:href="#SvgjsG1061" transform="translate(288, 336) scale(2)" fill="#0f457b"></use><use xlink:href="#SvgjsG1057" transform="translate(288, 384) scale(2)" fill="#0f457b"></use><use xlink:href="#SvgjsG1054" transform="translate(288, 432) scale(2)" fill="#0f457b"></use><use xlink:href="#SvgjsG1059" transform="translate(336, 0) scale(2)" fill="#0f457b"></use><use xlink:href="#SvgjsG1058" transform="translate(336, 48) scale(2)" fill="#0f457b"></use><use xlink:href="#SvgjsG1059" transform="translate(336, 96) scale(2)" fill="#0f457b"></use><use xlink:href="#SvgjsG1057" transform="translate(336, 144) scale(2)" fill="#0f457b"></use><use xlink:href="#SvgjsG1056" transform="translate(336, 192) scale(2)" fill="#0f457b"></use><use xlink:href="#SvgjsG1055" transform="translate(336, 240) scale(2)" fill="#0f457b"></use><use xlink:href="#SvgjsG1056" transform="translate(336, 288) scale(2)" fill="#0f457b"></use><use xlink:href="#SvgjsG1058" transform="translate(336, 336) scale(2)" fill="#0f457b"></use><use xlink:href="#SvgjsG1061" transform="translate(336, 384) scale(2)" fill="#0f457b"></use><use xlink:href="#SvgjsG1057" transform="translate(336, 432) scale(2)" fill="#0f457b"></use><use xlink:href="#SvgjsG1061" transform="translate(384, 0) scale(2)" fill="#0f457b"></use><use xlink:href="#SvgjsG1057" transform="translate(384, 48) scale(2)" fill="#0f457b"></use><use xlink:href="#SvgjsG1061" transform="translate(384, 96) scale(2)" fill="#0f457b"></use><use xlink:href="#SvgjsG1055" transform="translate(384, 144) scale(2)" fill="#0f457b"></use><use xlink:href="#SvgjsG1054" transform="translate(384, 192) scale(2)" fill="#0f457b"></use><use xlink:href="#SvgjsG1055" transform="translate(384, 240) scale(2)" fill="#0f457b"></use><use xlink:href="#SvgjsG1061" transform="translate(384, 288) scale(2)" fill="#0f457b"></use><use xlink:href="#SvgjsG1060" transform="translate(384, 336) scale(2)" fill="#0f457b"></use><use xlink:href="#SvgjsG1059" transform="translate(384, 384) scale(2)" fill="#0f457b"></use><use xlink:href="#SvgjsG1060" transform="translate(384, 432) scale(2)" fill="#0f457b"></use><use xlink:href="#SvgjsG1059" transform="translate(432, 0) scale(2)" fill="#0f457b"></use><use xlink:href="#SvgjsG1061" transform="translate(432, 48) scale(2)" fill="#0f457b"></use><use xlink:href="#SvgjsG1061" transform="translate(432, 96) scale(2)" fill="#0f457b"></use><use xlink:href="#SvgjsG1057" transform="translate(432, 144) scale(2)" fill="#0f457b"></use><use xlink:href="#SvgjsG1061" transform="translate(432, 192) scale(2)" fill="#0f457b"></use><use xlink:href="#SvgjsG1056" transform="translate(432, 240) scale(2)" fill="#0f457b"></use><use xlink:href="#SvgjsG1058" transform="translate(432, 288) scale(2)" fill="#0f457b"></use><use xlink:href="#SvgjsG1058" transform="translate(432, 336) scale(2)" fill="#0f457b"></use><use xlink:href="#SvgjsG1058" transform="translate(432, 384) scale(2)" fill="#0f457b"></use><use xlink:href="#SvgjsG1055" transform="translate(432, 432) scale(2)" fill="#0f457b"></use></g></defs></svg>